<?xml version="1.0" standalone="no"?>
<!DOCTYPE svg PUBLIC "-//W3C//DTD SVG 20010904//EN"
 "http://www.w3.org/TR/2001/REC-SVG-20010904/DTD/svg10.dtd">
<svg version="1.0" xmlns="http://www.w3.org/2000/svg"
 width="260.000000pt" height="260.000000pt" viewBox="0 0 260.000000 260.000000"
 preserveAspectRatio="xMidYMid meet">
<metadata>
Created by potrace 1.11, written by Peter Selinger 2001-2013
</metadata>
<g transform="translate(0.000000,260.000000) scale(0.100000,-0.100000)"
fill="#000000" stroke="none">
<path d="M1195 2588 c-38 -5 -107 -17 -152 -28 -88 -21 -243 -77 -243 -88 0
-4 32 -6 70 -5 165 3 349 -78 456 -201 33 -37 423 -678 530 -871 6 -11 59
-102 118 -202 107 -181 108 -183 138 -178 208 37 394 216 437 420 56 272 -139
673 -442 903 -155 118 -362 209 -537 237 -19 3 -48 8 -64 11 -46 10 -235 11
-311 2z"/>
<path d="M722 2338 c-131 -19 -240 -78 -348 -188 -196 -200 -295 -405 -339
-704 -11 -75 -6 -252 10 -339 56 -320 225 -581 503 -779 28 -21 52 -36 52 -33
0 2 -18 32 -40 67 -61 94 -85 181 -84 308 0 162 7 179 244 580 56 96 111 189
120 205 10 17 55 93 100 170 46 77 128 217 182 310 55 94 105 176 111 183 7
10 -3 25 -41 62 -28 27 -70 61 -93 76 -101 64 -261 99 -377 82z"/>
<path d="M2544 1125 c-35 -68 -101 -145 -168 -194 -124 -92 -225 -121 -416
-121 l-135 0 -147 -152 -148 -153 -1 65 c-1 36 -2 88 -4 115 -1 28 -3 66 -4
86 l-1 36 -440 -1 -441 -1 -19 -64 c-56 -181 -1 -383 142 -524 83 -82 171
-127 303 -156 128 -28 152 -31 267 -32 472 -5 907 254 1121 667 42 83 97 247
112 340 9 54 15 144 10 144 -2 0 -16 -25 -31 -55z"/>
</g>
</svg>
